<svg width="47" height="43" fill="none" xmlns="http://www.w3.org/2000/svg"><path d="M45.169 32.288l-4.834-4.855 1.003-1.007a.536.536 0 000-.755l-5.158-5.18-9.392-9.432-1.889-3.83a.53.53 0 00-.85-.14l-1.872 1.879-7.34-7.371a2.646 2.646 0 00-1.575-.76l-7.3-.82a2.647 2.647 0 00-2.919 2.341 2.653 2.653 0 002.332 2.93l6.38.716 6.686 6.714-1.871 1.88a.536.536 0 00.14.855l3.229 1.605-.916.92v.001a3.206 3.206 0 000 4.516l7.58 7.613a.533.533 0 00.75 0l5.694-5.718 4.783 4.802a.527.527 0 00.751 0l1.002-1.007 4.834 4.854.001.002a5.185 5.185 0 011.52 3.683c0 1.39-.54 2.699-1.52 3.683a5.14 5.14 0 01-3.667 1.526 5.141 5.141 0 01-3.668-1.526l-5.746-5.77v-.001a5.024 5.024 0 00-7.119 0l-3.827 3.843a3.936 3.936 0 01-2.808 1.168 3.938 3.938 0 01-2.807-1.167L.906 24.55a.528.528 0 00-.75 0 .534.534 0 000 .754l13.868 13.929a4.99 4.99 0 003.56 1.48 4.988 4.988 0 003.558-1.48l3.828-3.844a3.963 3.963 0 015.615 0l5.748 5.771A6.195 6.195 0 0040.75 43c1.67 0 3.238-.654 4.418-1.839A6.247 6.247 0 0047 36.724a6.252 6.252 0 00-1.831-4.436zM12.375 5.118a.53.53 0 00-.317-.153L5.493 4.23a1.586 1.586 0 01.35-3.151l7.301.82c.355.04.689.2.941.453l7.34 7.372-2.233 2.242-6.817-6.847zm5.47 9.71l1.722-1.731 2.982-2.995.002-.002 1.723-1.73 1.43 2.9-4.974 4.995-2.886-1.436zm9.133 14.15l-6.83-6.86 1.122-1.125 4.558 4.577a.526.526 0 00.751 0 .534.534 0 000-.755l-4.558-4.577 1.528-1.535 5.94 7.75-2.51 2.524zm5.696-5.721l-.003.002-.002.003-2.422 2.431-6.225-8.121c-.007-.01-.016-.017-.024-.025-.008-.009-.013-.018-.022-.027-.004-.005-.01-.008-.014-.012-.014-.013-.029-.024-.043-.035a.443.443 0 00-.042-.03.553.553 0 00-.094-.046.336.336 0 00-.048-.014.426.426 0 00-.05-.011l-.05-.006c-.018 0-.034-.002-.05-.001-.018 0-.036.003-.053.005-.016.002-.033.004-.049.008a.678.678 0 00-.05.014l-.048.019a.554.554 0 00-.093.053l-.016.01c-.01.008-.015.017-.024.024l-.027.022-3.778 3.795a2.135 2.135 0 01.326-2.58l1.44-1.446 5.137-5.16 8.702 8.74-2.378 2.388zm5.53 4.806l-4.406-4.426 2.004-2.014 4.408 4.426-2.005 2.014z" fill="#1951A0"/><path d="M4.434 18.9c2 0 3.626-1.634 3.626-3.641 0-.594-.144-1.181-.417-1.7L4.918 7.49a.531.531 0 00-.969 0l-2.724 6.067a3.666 3.666 0 00-.418 1.7c0 2.008 1.627 3.642 3.627 3.642zM2.17 14.044a.384.384 0 00.016-.032l2.248-5.005 2.247 5.005.016.032c.197.37.3.79.3 1.214 0 1.42-1.15 2.575-2.563 2.575a2.572 2.572 0 01-2.564-2.575c0-.424.103-.844.3-1.214z" fill="#1951A0"/></svg>