<svg width="47" height="43" fill="none" xmlns="http://www.w3.org/2000/svg"><mask id="path-1-inside-1" fill="#fff"><path d="M41.54 29c-.128 0-.27.014-.411.042l-3.039.554c-1.532.277-2.73 1.593-2.948 3.256l-.13.97c-.012.042-.012.097-.012.139a1.083 1.083 0 00.425.86c.154.11.348.179.54.179h.09l5.692-.568a2.334 2.334 0 001.133-.43c.335-.235.605-.554.798-.928.142-.277.245-.596.283-.915l.013-.097a2.824 2.824 0 00-.27-1.635 2.66 2.66 0 00-.914-1.039A2.171 2.171 0 0041.54 29zm1.546 2.91l-.013.097c-.026.208-.09.402-.18.568a1.637 1.637 0 01-.502.582c-.206.153-.451.25-.709.263l-5.69.568h-.014c-.012 0-.012-.013-.012-.013v-.028l.128-.97c.155-1.22 1.043-2.203 2.176-2.397l3.039-.555c.09-.013.167-.027.258-.027.283 0 .553.083.798.235.232.153.438.374.58.651.115.25.18.513.18.79a.82.82 0 00-.04.236z"/><path d="M46.423 22.234a1.263 1.263 0 00-.693-.204c-.052 0-.103 0-.154.012a9.341 9.341 0 01-1.81.013c-.423-.038-.833-.102-1.141-.204a1.809 1.809 0 01-.385-.179.492.492 0 01-.167-.153l-1.976-4.122c.154-.14.32-.281.475-.434a7.572 7.572 0 002.233-5.36 7.516 7.516 0 00-1.412-4.392.457.457 0 00-.642-.102.466.466 0 00-.115.638 6.588 6.588 0 011.232 3.855 6.79 6.79 0 01-.488 2.514 6.863 6.863 0 01-1.463 2.196 6.63 6.63 0 01-2.207 1.455 6.829 6.829 0 01-2.514.485 6.83 6.83 0 01-2.515-.485 6.503 6.503 0 01-2.207-1.455 6.529 6.529 0 01-1.463-2.196 6.562 6.562 0 01-.5-2.514c0-1.379.423-2.757 1.295-3.931l4.748-6.433a.673.673 0 01.295-.242.808.808 0 01.347-.077c.115 0 .243.025.346.077a.752.752 0 01.295.242l.924 1.25a.457.457 0 00.641.103.452.452 0 00.103-.638L36.581.702a1.647 1.647 0 00-.629-.523A1.779 1.779 0 0035.197 0c-.257 0-.527.064-.758.179a1.647 1.647 0 00-.628.523l-4.748 6.433a7.529 7.529 0 00-.91 7.339 7.644 7.644 0 001.667 2.501 7.623 7.623 0 002.515 1.66c.911.37 1.886.548 2.861.548a7.61 7.61 0 002.862-.548c.449-.18.885-.409 1.296-.677l1.693 3.536c-.795.255-1.757.497-2.835.714-1.976.396-4.35.74-6.878.97-2.54.23-5.222.37-7.827.37-3.464 0-7.082-.23-10.29-.638a54.163 54.163 0 01-4.401-.702c-1.09-.23-2.066-.472-2.861-.727l2.579-6.497c.846-1.365 2.31-2.233 3.913-2.386l1.578-.026c-.012.051-.025.102-.025.166 0 .115.038.242.102.345a.67.67 0 00.129.14.476.476 0 00.18.09c.127.05.294.127.474.229.308.179.667.447 1.04.74a12.82 12.82 0 011.552 1.557 6.7 6.7 0 01.577.779c.154.242.27.472.334.638.026.064.051.115.09.179.064.076.14.14.218.178.09.039.18.064.27.064a.682.682 0 00.346-.102.668.668 0 00.14-.127.47.47 0 00.09-.18c.04-.127.116-.293.232-.471a8.41 8.41 0 01.744-1.034 11.892 11.892 0 011.565-1.544c.27-.23.54-.422.783-.575a3.98 3.98 0 01.641-.332.69.69 0 00.18-.09.625.625 0 00.18-.229.683.683 0 00.064-.268.674.674 0 00-.103-.345 1.407 1.407 0 00-.128-.14.475.475 0 00-.18-.09 3.89 3.89 0 01-.474-.229 8.318 8.318 0 01-1.04-.753 11.9 11.9 0 01-1.552-1.557 8.622 8.622 0 01-.578-.779 3.884 3.884 0 01-.333-.638.775.775 0 00-.09-.179.626.626 0 00-.231-.178.615.615 0 00-.257-.051.683.683 0 00-.346.102c-.051.038-.103.076-.141.127a.472.472 0 00-.09.18 3.86 3.86 0 01-.231.471c-.18.307-.436.677-.744 1.034a12.74 12.74 0 01-1.566 1.545c-.166.14-.333.268-.5.383l-2.926.05h-.038A6.241 6.241 0 007.7 14.512l-.039.077-2.759 6.93a61.59 61.59 0 01-.077.077 1.49 1.49 0 01-.384.204c-.257.102-.604.166-.963.204-.36.038-.744.064-1.09.064-.385 0-.732-.026-.988-.051-.052 0-.103-.013-.154-.013a1.17 1.17 0 00-.475.102c-.218.09-.41.243-.552.447a1.16 1.16 0 00-.218.69v1.556c0 .32.115.6.32.83.193.217.476.37.783.408l1.797.205-1.437 2.693-.013.038a7.345 7.345 0 00-.603 2.91c0 .268.013.549.051.817l.334 2.961c.09.88.487 1.66 1.065 2.246v2.464c0 .357.077.715.205 1.02.205.473.539.882.962 1.162.424.281.937.447 1.476.447H7.03c.36 0 .719-.077 1.027-.204a2.75 2.75 0 001.168-.957c.282-.422.449-.932.449-1.468v-1.328h6.736v1.187a.7.7 0 00.154.447.536.536 0 00.205.166c.077.051.18.077.295.077h12.87a.6.6 0 00.295-.077.604.604 0 00.27-.268.659.659 0 00.09-.345v-1.187h6.735v1.328c0 .357.077.715.206 1.02.205.473.539.882.962 1.162.423.281.937.447 1.476.447h2.078a2.69 2.69 0 001.027-.204 2.676 2.676 0 001.167-.957c.283-.422.45-.932.45-1.468v-2.464a3.83 3.83 0 001.077-2.246l.334-2.961a8.71 8.71 0 00.051-.817c0-.995-.205-1.991-.603-2.923l-.013-.038-1.437-2.693 1.797-.204c.308-.039.59-.18.782-.409.193-.217.321-.51.321-.83V23.23c0-.178-.038-.331-.103-.485a1.642 1.642 0 00-.474-.51zM18.194 10.21a7.625 7.625 0 00.77-1.098c0 .013 0 .013.013.013.218.37.5.766.834 1.161.5.587 1.09 1.175 1.68 1.66.296.242.591.46.886.638.077.05.154.09.218.127 0 0-.012 0-.012.013-.372.217-.77.51-1.168.843a13.72 13.72 0 00-1.668 1.671 7.639 7.639 0 00-.642.881c-.05.077-.09.153-.128.217l-.013-.013a8.79 8.79 0 00-.847-1.161 13.71 13.71 0 00-1.68-1.66 7.676 7.676 0 00-.886-.637c-.077-.051-.154-.09-.218-.128.013 0 .013 0 .013-.013.128-.076.256-.153.398-.255h.013c.256-.166.513-.37.77-.575.59-.51 1.18-1.097 1.667-1.684zM8.597 41.047a1.695 1.695 0 01-.616.753 1.78 1.78 0 01-.962.294H4.927c-.244 0-.462-.051-.667-.14a1.646 1.646 0 01-.757-.626c-.193-.28-.295-.6-.295-.957v-2.132l5.53.753v1.392c0 .242-.051.459-.141.663zm21.043-1.046H17.322v-2.694H29.64v2.694zm13.985 1.046a1.695 1.695 0 01-.615.753 1.78 1.78 0 01-.963.294H39.97c-.244 0-.462-.051-.668-.14a1.645 1.645 0 01-.757-.626c-.18-.28-.295-.6-.295-.957v-1.392l5.53-.752v2.131a1.877 1.877 0 01-.154.69zm2.425-16.222a.29.29 0 01-.076.204c-.052.064-.116.09-.206.102l-2.463.268a.449.449 0 00-.36.243.437.437 0 000 .434l1.745 3.28a6.433 6.433 0 01.488 3.255l-.334 2.96a2.854 2.854 0 01-.834 1.711l-6.274.855h-7.172V37.09a.7.7 0 00-.154-.446.535.535 0 00-.206-.166.564.564 0 00-.295-.077H17.052a.598.598 0 00-.295.077.605.605 0 00-.27.268.66.66 0 00-.089.344v1.047h-7.16l-6.274-.855a2.803 2.803 0 01-.821-1.71l-.347-2.961a6.434 6.434 0 01.488-3.255l1.745-3.28a.436.436 0 000-.434.449.449 0 00-.36-.243l-2.463-.268a.392.392 0 01-.205-.102.289.289 0 01-.077-.204v-1.557c0-.051.013-.09.025-.128a.4.4 0 01.116-.14.259.259 0 01.167-.051h.051a11.116 11.116 0 001.989.013 5.96 5.96 0 001.36-.256c.205-.076.41-.153.59-.268.077-.05.141-.102.218-.166.873.294 1.938.562 3.144.804 2.014.409 4.414.753 6.98.983 2.553.243 5.274.37 7.904.37 3.516 0 7.172-.242 10.419-.638a63.66 63.66 0 004.478-.715 27.193 27.193 0 003.156-.817l.039.039c.192.153.423.268.654.357.36.128.757.204 1.168.255.41.051.82.064 1.206.064.41 0 .795-.025 1.078-.05h.051c.038 0 .077.012.115.025a.402.402 0 01.142.114.27.27 0 01.05.18v1.582h.026z"/><path d="M31.543 33H14.457c-.254 0-.457.222-.457.5s.203.5.457.5h17.086c.254 0 .457-.222.457-.5s-.203-.5-.457-.5zm-19.546.833l-.129-.972c-.219-1.667-1.403-2.986-2.934-3.264l-3.038-.555A1.978 1.978 0 005.484 29c-.45 0-.888.139-1.261.375-.386.25-.708.597-.927 1.042a2.837 2.837 0 00-.27 1.639l.013.097c.038.333.141.639.283.916.193.375.463.695.798.931.334.236.72.389 1.132.43l5.676.57h.09a.866.866 0 00.374-.083 1.05 1.05 0 00.425-.375c.103-.167.167-.375.167-.584.026-.027.013-.083.013-.125zm-.927.153l-.013.014c-.013 0-.013.014-.026.014l-5.688-.57a1.581 1.581 0 01-.708-.263 1.633 1.633 0 01-.502-.584 1.621 1.621 0 01-.18-.57l-.013-.096c-.013-.084-.013-.153-.013-.237 0-.277.064-.541.18-.791.141-.278.335-.5.58-.653.23-.153.514-.236.797-.236.09 0 .167.014.258.028l3.037.555c1.133.209 2.008 1.18 2.175 2.403l.129.972v.014h-.013zm26.916-19.893a3.597 3.597 0 01-2.5.986.472.472 0 00-.486.46c0 .256.216.461.486.461 1.203 0 2.352-.448 3.19-1.254a4.187 4.187 0 001.31-2.7c.014-.103.014-.218.014-.32 0-.909-.31-1.792-.878-2.534a.512.512 0 00-.69-.103.454.454 0 00-.108.653c.446.576.69 1.267.69 1.984 0 .09 0 .166-.014.256a3.105 3.105 0 01-1.014 2.111zM26.552 2.448c-.391-.391-.574-.691-.6-.77A1.012 1.012 0 0025 1c-.43 0-.809.274-.952.678-.026.092-.222.392-.6.77-.378.391-.692.574-.77.6A1.012 1.012 0 0022 4a1 1 0 00.678.952c.092.026.392.222.77.6.391.391.574.691.6.77.143.404.522.678.952.678.43 0 .809-.274.952-.678.026-.092.222-.392.6-.77.392-.391.692-.574.77-.6A1.01 1.01 0 0028 4c0-.43-.274-.809-.678-.952-.078-.026-.378-.209-.77-.6zm.47 1.63c-.626.222-1.735 1.33-1.957 1.957-.013.026-.039.052-.065.052-.026 0-.052-.013-.065-.052-.222-.626-1.33-1.735-1.957-1.957-.065-.026-.065-.117 0-.13.626-.222 1.735-1.33 1.957-1.957.013-.039.039-.052.065-.052.026 0 .052.013.065.052.222.626 1.33 1.735 1.957 1.957.065.013.065.104 0 .13z"/></mask><path d="M41.54 29c-.128 0-.27.014-.411.042l-3.039.554c-1.532.277-2.73 1.593-2.948 3.256l-.13.97c-.012.042-.012.097-.012.139a1.083 1.083 0 00.425.86c.154.11.348.179.54.179h.09l5.692-.568a2.334 2.334 0 001.133-.43c.335-.235.605-.554.798-.928.142-.277.245-.596.283-.915l.013-.097a2.824 2.824 0 00-.27-1.635 2.66 2.66 0 00-.914-1.039A2.171 2.171 0 0041.54 29zm1.546 2.91l-.013.097c-.026.208-.09.402-.18.568a1.637 1.637 0 01-.502.582c-.206.153-.451.25-.709.263l-5.69.568h-.014c-.012 0-.012-.013-.012-.013v-.028l.128-.97c.155-1.22 1.043-2.203 2.176-2.397l3.039-.555c.09-.013.167-.027.258-.027.283 0 .553.083.798.235.232.153.438.374.58.651.115.25.18.513.18.79a.82.82 0 00-.04.236z" fill="#13333F"/><path d="M46.423 22.234a1.263 1.263 0 00-.693-.204c-.052 0-.103 0-.154.012a9.341 9.341 0 01-1.81.013c-.423-.038-.833-.102-1.141-.204a1.809 1.809 0 01-.385-.179.492.492 0 01-.167-.153l-1.976-4.122c.154-.14.32-.281.475-.434a7.572 7.572 0 002.233-5.36 7.516 7.516 0 00-1.412-4.392.457.457 0 00-.642-.102.466.466 0 00-.115.638 6.588 6.588 0 011.232 3.855 6.79 6.79 0 01-.488 2.514 6.863 6.863 0 01-1.463 2.196 6.63 6.63 0 01-2.207 1.455 6.829 6.829 0 01-2.514.485 6.83 6.83 0 01-2.515-.485 6.503 6.503 0 01-2.207-1.455 6.529 6.529 0 01-1.463-2.196 6.562 6.562 0 01-.5-2.514c0-1.379.423-2.757 1.295-3.931l4.748-6.433a.673.673 0 01.295-.242.808.808 0 01.347-.077c.115 0 .243.025.346.077a.752.752 0 01.295.242l.924 1.25a.457.457 0 00.641.103.452.452 0 00.103-.638L36.581.702a1.647 1.647 0 00-.629-.523A1.779 1.779 0 0035.197 0c-.257 0-.527.064-.758.179a1.647 1.647 0 00-.628.523l-4.748 6.433a7.529 7.529 0 00-.91 7.339 7.644 7.644 0 001.667 2.501 7.623 7.623 0 002.515 1.66c.911.37 1.886.548 2.861.548a7.61 7.61 0 002.862-.548c.449-.18.885-.409 1.296-.677l1.693 3.536c-.795.255-1.757.497-2.835.714-1.976.396-4.35.74-6.878.97-2.54.23-5.222.37-7.827.37-3.464 0-7.082-.23-10.29-.638a54.163 54.163 0 01-4.401-.702c-1.09-.23-2.066-.472-2.861-.727l2.579-6.497c.846-1.365 2.31-2.233 3.913-2.386l1.578-.026c-.012.051-.025.102-.025.166 0 .115.038.242.102.345a.67.67 0 00.129.14.476.476 0 00.18.09c.127.05.294.127.474.229.308.179.667.447 1.04.74a12.82 12.82 0 011.552 1.557 6.7 6.7 0 01.577.779c.154.242.27.472.334.638.026.064.051.115.09.179.064.076.14.14.218.178.09.039.18.064.27.064a.682.682 0 00.346-.102.668.668 0 00.14-.127.47.47 0 00.09-.18c.04-.127.116-.293.232-.471a8.41 8.41 0 01.744-1.034 11.892 11.892 0 011.565-1.544c.27-.23.54-.422.783-.575a3.98 3.98 0 01.641-.332.69.69 0 00.18-.09.625.625 0 00.18-.229.683.683 0 00.064-.268.674.674 0 00-.103-.345 1.407 1.407 0 00-.128-.14.475.475 0 00-.18-.09 3.89 3.89 0 01-.474-.229 8.318 8.318 0 01-1.04-.753 11.9 11.9 0 01-1.552-1.557 8.622 8.622 0 01-.578-.779 3.884 3.884 0 01-.333-.638.775.775 0 00-.09-.179.626.626 0 00-.231-.178.615.615 0 00-.257-.051.683.683 0 00-.346.102c-.051.038-.103.076-.141.127a.472.472 0 00-.09.18 3.86 3.86 0 01-.231.471c-.18.307-.436.677-.744 1.034a12.74 12.74 0 01-1.566 1.545c-.166.14-.333.268-.5.383l-2.926.05h-.038A6.241 6.241 0 007.7 14.512l-.039.077-2.759 6.93a61.59 61.59 0 01-.077.077 1.49 1.49 0 01-.384.204c-.257.102-.604.166-.963.204-.36.038-.744.064-1.09.064-.385 0-.732-.026-.988-.051-.052 0-.103-.013-.154-.013a1.17 1.17 0 00-.475.102c-.218.09-.41.243-.552.447a1.16 1.16 0 00-.218.69v1.556c0 .32.115.6.32.83.193.217.476.37.783.408l1.797.205-1.437 2.693-.013.038a7.345 7.345 0 00-.603 2.91c0 .268.013.549.051.817l.334 2.961c.09.88.487 1.66 1.065 2.246v2.464c0 .357.077.715.205 1.02.205.473.539.882.962 1.162.424.281.937.447 1.476.447H7.03c.36 0 .719-.077 1.027-.204a2.75 2.75 0 001.168-.957c.282-.422.449-.932.449-1.468v-1.328h6.736v1.187a.7.7 0 00.154.447.536.536 0 00.205.166c.077.051.18.077.295.077h12.87a.6.6 0 00.295-.077.604.604 0 00.27-.268.659.659 0 00.09-.345v-1.187h6.735v1.328c0 .357.077.715.206 1.02.205.473.539.882.962 1.162.423.281.937.447 1.476.447h2.078a2.69 2.69 0 001.027-.204 2.676 2.676 0 001.167-.957c.283-.422.45-.932.45-1.468v-2.464a3.83 3.83 0 001.077-2.246l.334-2.961a8.71 8.71 0 00.051-.817c0-.995-.205-1.991-.603-2.923l-.013-.038-1.437-2.693 1.797-.204c.308-.039.59-.18.782-.409.193-.217.321-.51.321-.83V23.23c0-.178-.038-.331-.103-.485a1.642 1.642 0 00-.474-.51zM18.194 10.21a7.625 7.625 0 00.77-1.098c0 .013 0 .013.013.013.218.37.5.766.834 1.161.5.587 1.09 1.175 1.68 1.66.296.242.591.46.886.638.077.05.154.09.218.127 0 0-.012 0-.012.013-.372.217-.77.51-1.168.843a13.72 13.72 0 00-1.668 1.671 7.639 7.639 0 00-.642.881c-.05.077-.09.153-.128.217l-.013-.013a8.79 8.79 0 00-.847-1.161 13.71 13.71 0 00-1.68-1.66 7.676 7.676 0 00-.886-.637c-.077-.051-.154-.09-.218-.128.013 0 .013 0 .013-.013.128-.076.256-.153.398-.255h.013c.256-.166.513-.37.77-.575.59-.51 1.18-1.097 1.667-1.684zM8.597 41.047a1.695 1.695 0 01-.616.753 1.78 1.78 0 01-.962.294H4.927c-.244 0-.462-.051-.667-.14a1.646 1.646 0 01-.757-.626c-.193-.28-.295-.6-.295-.957v-2.132l5.53.753v1.392c0 .242-.051.459-.141.663zm21.043-1.046H17.322v-2.694H29.64v2.694zm13.985 1.046a1.695 1.695 0 01-.615.753 1.78 1.78 0 01-.963.294H39.97c-.244 0-.462-.051-.668-.14a1.645 1.645 0 01-.757-.626c-.18-.28-.295-.6-.295-.957v-1.392l5.53-.752v2.131a1.877 1.877 0 01-.154.69zm2.425-16.222a.29.29 0 01-.076.204c-.052.064-.116.09-.206.102l-2.463.268a.449.449 0 00-.36.243.437.437 0 000 .434l1.745 3.28a6.433 6.433 0 01.488 3.255l-.334 2.96a2.854 2.854 0 01-.834 1.711l-6.274.855h-7.172V37.09a.7.7 0 00-.154-.446.535.535 0 00-.206-.166.564.564 0 00-.295-.077H17.052a.598.598 0 00-.295.077.605.605 0 00-.27.268.66.66 0 00-.089.344v1.047h-7.16l-6.274-.855a2.803 2.803 0 01-.821-1.71l-.347-2.961a6.434 6.434 0 01.488-3.255l1.745-3.28a.436.436 0 000-.434.449.449 0 00-.36-.243l-2.463-.268a.392.392 0 01-.205-.102.289.289 0 01-.077-.204v-1.557c0-.051.013-.09.025-.128a.4.4 0 01.116-.14.259.259 0 01.167-.051h.051a11.116 11.116 0 001.989.013 5.96 5.96 0 001.36-.256c.205-.076.41-.153.59-.268.077-.05.141-.102.218-.166.873.294 1.938.562 3.144.804 2.014.409 4.414.753 6.98.983 2.553.243 5.274.37 7.904.37 3.516 0 7.172-.242 10.419-.638a63.66 63.66 0 004.478-.715 27.193 27.193 0 003.156-.817l.039.039c.192.153.423.268.654.357.36.128.757.204 1.168.255.41.051.82.064 1.206.064.41 0 .795-.025 1.078-.05h.051c.038 0 .077.012.115.025a.402.402 0 01.142.114.27.27 0 01.05.18v1.582h.026z" fill="#13333F"/><path d="M31.543 33H14.457c-.254 0-.457.222-.457.5s.203.5.457.5h17.086c.254 0 .457-.222.457-.5s-.203-.5-.457-.5zm-19.546.833l-.129-.972c-.219-1.667-1.403-2.986-2.934-3.264l-3.038-.555A1.978 1.978 0 005.484 29c-.45 0-.888.139-1.261.375-.386.25-.708.597-.927 1.042a2.837 2.837 0 00-.27 1.639l.013.097c.038.333.141.639.283.916.193.375.463.695.798.931.334.236.72.389 1.132.43l5.676.57h.09a.866.866 0 00.374-.083 1.05 1.05 0 00.425-.375c.103-.167.167-.375.167-.584.026-.027.013-.083.013-.125zm-.927.153l-.013.014c-.013 0-.013.014-.026.014l-5.688-.57a1.581 1.581 0 01-.708-.263 1.633 1.633 0 01-.502-.584 1.621 1.621 0 01-.18-.57l-.013-.096c-.013-.084-.013-.153-.013-.237 0-.277.064-.541.18-.791.141-.278.335-.5.58-.653.23-.153.514-.236.797-.236.09 0 .167.014.258.028l3.037.555c1.133.209 2.008 1.18 2.175 2.403l.129.972v.014h-.013zm26.916-19.893a3.597 3.597 0 01-2.5.986.472.472 0 00-.486.46c0 .256.216.461.486.461 1.203 0 2.352-.448 3.19-1.254a4.187 4.187 0 001.31-2.7c.014-.103.014-.218.014-.32 0-.909-.31-1.792-.878-2.534a.512.512 0 00-.69-.103.454.454 0 00-.108.653c.446.576.69 1.267.69 1.984 0 .09 0 .166-.014.256a3.105 3.105 0 01-1.014 2.111zM26.552 2.448c-.391-.391-.574-.691-.6-.77A1.012 1.012 0 0025 1c-.43 0-.809.274-.952.678-.026.092-.222.392-.6.77-.378.391-.692.574-.77.6A1.012 1.012 0 0022 4a1 1 0 00.678.952c.092.026.392.222.77.6.391.391.574.691.6.77.143.404.522.678.952.678.43 0 .809-.274.952-.678.026-.092.222-.392.6-.77.392-.391.692-.574.77-.6A1.01 1.01 0 0028 4c0-.43-.274-.809-.678-.952-.078-.026-.378-.209-.77-.6zm.47 1.63c-.626.222-1.735 1.33-1.957 1.957-.013.026-.039.052-.065.052-.026 0-.052-.013-.065-.052-.222-.626-1.33-1.735-1.957-1.957-.065-.026-.065-.117 0-.13.626-.222 1.735-1.33 1.957-1.957.013-.039.039-.052.065-.052.026 0 .052.013.065.052.222.626 1.33 1.735 1.957 1.957.065.013.065.104 0 .13z" fill="#13333F"/><path d="M19.376 7.722l-.436.154.331.943.436-.153-.331-.944zM4.356 30.47l-.412-.236-.498.867.412.237.498-.868zm36.773-1.427l.18.983.012-.002-.192-.981zm-3.039.554l.178.984h.002l-.18-.984zm-2.948 3.256l.99.132.001-.001-.991-.13zm-.13.97l.956.296.025-.08.011-.084-.991-.132zm.065.54l-.924.382.005.013.92-.394zm.979.638v1h.05l.05-.005-.1-.995zm5.69-.568l.1.995h.001l-.1-.995zm1.134-.43l-.576-.818-.007.006-.008.005.59.807zm.798-.928l.889.459.002-.004-.89-.455zm.283-.915l-.991-.131-.001.011.992.12zm.013-.097l.992.132.002-.015.001-.014-.995-.103zm-.27-1.635l-.897.443.002.003.895-.446zm-.914-1.039l-.57.822.008.005.006.005.556-.832zm.296 2.522l.991.131.009-.065v-.066h-1zm-.013.097l-.991-.132-.002.009.993.123zm-.18.568l.877.48.002-.003-.88-.477zm-.502.582l-.559-.83-.018.013-.018.013.595.804zm-.709.263l-.053-.998-.023.001-.023.002.1.995zm-5.69.568v1h.05l.049-.005-.1-.995zm-.026-.013h1-1zm0-.028l-.992-.132-.008.066v.066h1zm.128-.97l.992.132v-.006l-.992-.126zm2.176-2.397l.17.985.01-.002-.18-.983zm3.039-.555l-.152-.988-.014.002-.013.003.179.983zm1.056.208l.55-.835-.011-.007-.01-.006-.53.848zm.58.651l.906-.42-.008-.018-.008-.017-.89.456zm.18.79l.955.296.044-.144v-.152h-1zm2.45-9.632l.105.995.07-.007.067-.017-.241-.97zm-1.808.013l-.09.996.09-.996zm-1.527-.383l.528-.849-.017-.01-.017-.01-.494.87zm-.167-.153l-.902.432.031.065.04.06.83-.557zm-1.976-4.122l-.674-.74-.55.502.322.67.902-.432zm.475-.434l.705.709-.705-.71zm1.668-2.502l-.925-.38-.002.005.927.375zm-.847-7.25l.813-.581-.007-.01-.008-.01-.798.601zm-.757.536l-.823.569.005.007.006.008.812-.584zm.744 6.37l.924.383.005-.013-.929-.37zm-1.463 2.195l.706.709.007-.007-.713-.702zm-2.207 1.455l.367.93.006-.002-.373-.928zm-7.236-1.455l.705-.71-.705.71zm-1.463-2.196l.929-.37-.005-.013-.924.383zm.795-6.445l.803.596.002-.002-.805-.594zm4.748-6.433l.804.594.014-.018.013-.02-.831-.556zm.295-.242l.404.914.021-.009.02-.01-.445-.895zm.693 0l-.445.895.02.01.02.01.405-.915zm.295.242l.804-.594-.008-.011-.008-.01-.788.615zm.924 1.25l-.805.595.006.008.799-.602zm.744-.535l-.804.594.006.008.798-.602zM36.581.702l-.809.588.005.006.804-.594zM34.438.179l.427.904.01-.004.009-.005-.446-.895zm-.628.523l.804.594.005-.006-.81-.588zm-4.748 6.433l-.804-.594.804.594zm-.91 7.339l.926-.376-.002-.004-.925.38zm1.667 2.501l-.711.703.006.006.705-.709zm8.238 1.66l-.37-.93-.007.003.377.927zm1.296-.677l.902-.432-.493-1.029-.956.624.547.837zm1.693 3.536l.306.952 1.092-.35-.496-1.034-.902.432zm-2.835.714l.196.98h.001l-.197-.98zm-6.878.97l.09.996-.09-.996zm-18.117-.268l.126-.992h-.008l-.118.992zm-4.401-.702l-.206.979.005.001.2-.98zm-2.861-.727l-.93-.37-.395.995 1.019.327.306-.952zm2.579-6.497l-.85-.527-.047.076-.033.082.93.37zm3.913-2.386l-.016-1h-.04l-.039.004.095.995zm1.578-.026l.97.244.318-1.265-1.304.021.016 1zm.077.51l-.847.532.023.037.026.034.798-.603zm.308.23l.37-.929-.085-.034-.09-.018-.195.981zm.475.23l.502-.865-.008-.004-.494.869zm1.04.74l.64-.768-.01-.009-.011-.008-.62.785zm1.552 1.557l-.767.643.01.01.757-.653zm.91 1.417l-.932.36.005.013.928-.373zm.09.179l-.856.516.04.067.05.059.767-.642zm.219.178l-.445.896.026.013.027.011.392-.92zm.616-.038l.528.85.036-.023.034-.025-.598-.802zm.23-.306l-.957-.289-.013.045-.01.047.98.197zm.232-.472l.84.543.011-.019.011-.019-.862-.505zm.744-1.034l-.765-.644-.006.007.77.637zm1.565-1.544l.63.777.01-.008.009-.009-.649-.76zm1.424-.907l.358.934.012-.005-.37-.929zm.18-.09l.598.802.02-.015.02-.016-.638-.77zm.141-.841l.847-.533-.023-.036-.025-.034-.799.602zm-.128-.14l.705-.71-.05-.05-.057-.042-.598.801zm-.18-.09l-.37.929.085.034.09.018.195-.981zm-.474-.23l-.502.865.007.004.494-.869zm-1.04-.753l-.64.768.005.004.635-.772zm-1.552-1.557l-.776.631.002.002.774-.633zm-.911-1.417l.932-.36-.005-.013-.927.373zm-.09-.179l.798-.602-.015-.02-.017-.02-.766.642zm-.231-.178l-.445.895.026.013.027.012.392-.92zm-.603.05l-.528-.848-.036.022-.034.025.598.802zm-.231.307l.928.373.034-.085.018-.09-.98-.198zm-.231.472l.863.506.004-.008-.867-.498zM17.412 9.7l-.758-.653-.007.01.765.643zm-1.566 1.545l-.638-.77-.006.005.644.765zm-.5.383l.017 1 .302-.006.248-.17-.567-.825zm-2.926.05v1h.018l-.018-1zm-.038 0v-1h-.047l-.046.005.093.995zm-4.683 2.834l-.842-.54-.028.044-.024.047.894.449zm-.039.077l-.893-.45-.02.04-.016.04.93.37zm-2.759 6.93l.706.71.147-.147.077-.193-.93-.37zm-.077.077l.639.77.035-.03.032-.031-.706-.71zm-.384.204l-.358-.934-.012.005.37.929zm-3.041.217l.099-.995-.05-.005h-.05v1zm-.63.09l.38.925.016-.007.017-.008-.412-.91zm-.55.446l.804.593.01-.012.008-.012-.823-.569zm.102 3.076l.748-.664-.003-.002-.745.666zm.782.408l-.123.993.01.001.113-.994zm1.797.205l.882.47.693-1.298-1.462-.166-.113.994zm-1.437 2.693l-.883-.471-.039.074-.026.079.948.318zm-.013.038l.918.397.017-.039.013-.04-.948-.318zM.898 32.7l.994-.112-.002-.015-.002-.015-.99.142zm.334 2.961l.995-.101-.002-.01-.993.111zm1.065 2.246h1v-.409l-.287-.292-.713.701zm.205 3.485l-.922.386.005.013.917-.4zm5.556 1.404l.383.924.012-.006-.395-.918zm1.168-.957l.818.573.006-.008.006-.009-.83-.556zm.449-2.796v-1h-1v1h1zm6.736 0h1v-1h-1v1zm.36 1.8l.552-.833-.076-.051-.085-.036-.392.92zm13.459 0l-.445-.895-.025.012-.024.014.494.869zm.27-.268l-.847-.532-.026.04-.021.043.893.449zm.09-1.532v-1h-1v1h1zm6.735 0h1v-1h-1v1zm.206 2.349l-.923.386.006.013.917-.4zm5.543 1.404l.383.924.012-.006-.395-.918zm1.616-4.889l-.713-.7-.287.291v.41h1zm1.078-2.246l.993.116v-.004l-.993-.112zm.334-2.961l.994.112v-.008l.001-.009-.995-.095zm-.552-3.74l-.948.318.013.038.015.037.92-.393zm-.013-.038l.949-.318-.027-.08-.04-.073-.882.47zM44.1 26.229l-.113-.994-1.462.166.693 1.299.882-.471zm1.797-.204l.113.993.01-.001-.123-.992zm.782-.409l-.748-.663-.01.01-.008.011.766.642zm.218-2.872l.923-.386-.029-.067-.037-.063-.857.516zM18.836 9.33l-.83-.557-.012.018-.011.017.853.522zm.128-.217h1l-1.893-.449.893.45zm.013.013l.862-.508-.29-.492h-.572v1zm.834 1.161l-.764.645.003.004.761-.649zm2.566 2.298l.553-.834-.017-.011-.018-.01-.518.855zm.218.127v1h3.627l-3.114-1.858-.513.858zm-.012.013l.503.864.497-.29v-.574h-1zm-1.168.843l-.64-.768-.005.003.645.764zm-2.31 2.552l.831.557.012-.017.01-.018-.853-.522zm-.128.217l-.705.71.903.898.658-1.091-.856-.517zm-.013-.013l-.861.508.065.11.091.091.705-.709zm-.847-1.161l.765-.645-.004-.004-.76.649zm-2.566-2.297l-.553.833.018.011.017.011.518-.855zm-.218-.128v-1h-3.627l3.115 1.859.512-.86zm.013-.013l-.513-.858-.487.29v.568h1zm.398-.255v-1h-.324l-.262.19.586.81zm.013 0v1h.295l.247-.16-.542-.84zm.77-.575l.622.783.016-.013.015-.013-.654-.756zm-7.93 29.152l-.916-.402-.003.008-.004.008.923.386zm-.616.753l.535.845.009-.006.009-.005-.553-.834zm-3.721.153l.399-.917-.008-.003-.008-.003-.383.923zm-.757-.625l.842-.539-.008-.013-.01-.013-.824.565zm-.295-3.089l.135-.99-1.135-.155v1.145h1zm5.53.753h1v-.873l-.865-.118-.135.991zm20.902 1.009v1h1v-1h-1zm-12.318 0h-1v1h1v-1zm0-2.694v-1h-1v1h1zm12.318 0h1v-1h-1v1zm13.985 3.74l-.915-.402-.004.008-.003.008.922.386zm-.615.753l.534.845.01-.006.008-.005-.552-.834zm-3.709.153l.4-.917-.009-.003-.008-.003-.383.923zM38.25 38.98l-.135-.99-.865.117v.873h1zm5.53-.752h1V37.08l-1.135.155.135.99zm0 2.131l1 .048v-.048h-1zm2.271-15.533h1v-1h-1v1zm-.076.204l-.706-.709-.039.04-.035.042.78.627zm-.206.102l.108.994.017-.001.016-.003-.14-.99zm-2.463.268l.082.997.013-.001.013-.002-.108-.994zm-.36.677l.883-.47-.006-.011-.877.48zm1.745 3.28l.919-.396-.016-.038-.02-.036-.883.47zm.488 3.255l.994.111v-.006l-.994-.105zm-.334 2.96l.994.114v-.001l-.994-.112zm-.834 1.711l.135.99.333-.044.238-.237-.706-.709zm-6.274.855v1h.068l.067-.009-.135-.99zm-7.172 0h-1v1h1v-1zm-.36-1.66l-.494.87.05.028.052.023.392-.92zm-13.447 0l.446.896.024-.012.024-.014-.494-.87zm-.27.269l.848.532.025-.04.021-.043-.893-.45zm-.089 1.391v1h1v-1h-1zm-7.16 0l-.135.991.068.01h.067v-1zm-6.274-.855l-.705.709.238.236.332.046.135-.991zm-.821-1.71l.995-.097v-.01l-.002-.01-.993.117zm-.347-2.961l-.994.105.001.01.993-.115zm.488-3.255l-.883-.47-.02.037-.015.037.918.396zm1.745-3.28l-.856-.517-.014.023-.013.024.883.47zm-.36-.677l-.107.994.012.002h.013l.083-.996zm-2.463-.268l-.163.987.027.004.028.003.108-.994zm-.257-1.99l-.893-.45-.032.064-.023.067.948.318zm.334-.192l.09-.996-.045-.004h-.045v1zm1.989.012l.083.997-.083-.997zm1.36-.255l.315.95.017-.006.017-.007-.349-.937zm.59-.268l.539.843.007-.005.007-.005-.553-.833zm.218-.166l.32-.948-.529-.177-.429.355.638.77zm3.144.804l.199-.98H8.78l-.197.98zm6.98.983l.095-.995h-.006l-.089.995zm18.323-.268l.12.993h.005l-.125-.993zm4.478-.715l.197.98-.197-.98zm3.156-.817l.705-.709-.436-.433-.584.193.315.95zm.039.039l-.706.709.04.039.043.034.623-.782zm.654.357l-.36.933.012.005.013.004.335-.942zm3.452.268v-1h-.046l-.044.004.09.996zm.166.026l.446-.896-.064-.031-.067-.022-.315.949zm.193 1.876h-1v1h1v-1zm-34.028 9.008h1v-.066l-.009-.065-.991.131zm-.129-.972l-.991.13v.001l.991-.13zm-2.934-3.264l-.18.984h.001l.178-.984zm-3.038-.555l-.211.977.015.004.016.002.18-.983zm-1.673.333l-.535-.845-.009.006.544.839zm-.927 1.042l.896.444.001-.003-.897-.441zm-.27 1.639l-.995.102.001.014.002.015.992-.131zm.013.097l.993-.115-.001-.008-.001-.008-.991.13zm.283.916l-.891.455.002.003.889-.458zm1.93 1.362l-.1.995.1-.995zm5.676.569l-.1.995.05.005h.05v-1zm.464-.083l.432.901.007-.003.007-.003-.446-.895zm.592-.959l-.734-.68-.266.288v.392h1zm-.914.028v-1h-.437l-.296.32.733.68zm-.013.014v1h.437l.297-.32-.734-.68zm-.026.014l-.1.995.05.005h.05v-1zm-5.688-.57l-.108.995h.008l.1-.995zm-.708-.263l-.596.803.018.013.018.013.56-.83zm-.502-.584l.897-.44-.008-.018-.01-.017-.88.475zm-.18-.57l.992-.122-.001-.009-.992.132zm-.013-.096l.99-.132v-.01l-.002-.011-.988.153zm.167-1.028l-.891-.454-.009.016-.007.017.907.42zm.58-.653l.529.848.01-.006.01-.007-.55-.835zm1.055-.208l.18-.984-.014-.003-.014-.002-.152.989zm3.037.555l.18-.983-.18.983zM10.954 33l.992-.131-.001-.005-.99.136zm.129.972h1v-.066l-.009-.065-.991.131zm0 .014v1h1v-1h-1zm26.903-19.893l-.679-.734-.008.008.688.726zm.69.653l-.688-.726-.006.005.694.72zm1.31-2.7l-.99-.131-.004.026-.002.026.996.079zm-.864-2.854l.794-.608-.005-.006-.005-.007-.784.62zm-.69-.103l-.555-.831-.012.008-.012.008.58.815zm-.108.653l.791-.612-.007-.009-.784.621zm.676 2.24l-.989-.15-.007.05-.003.049.999.05zM25.952 1.678l.949-.316-.003-.01-.003-.008-.943.334zm-1.904 0l-.943-.334-.01.03-.009.03.962.274zm-.6.77l-.707-.707-.006.006-.006.006.719.695zm-.77.6l-.316-.949-.01.003-.008.003.334.943zm0 1.904l-.307.952.016.005.017.005.274-.962zm1.37 1.37l-.949.316.003.01.003.008.943-.334zm1.904 0l.943.334.01-.03.009-.03-.962-.274zm1.37-1.37l.316.949.01-.003.008-.003-.334-.943zm0-1.904l.334-.943-.009-.003-.009-.003-.316.949zm-.3 1.03l.334.943.018-.007.02-.007-.372-.929zm-1.957 1.957l.895.447.027-.055.02-.058-.942-.334zm-.13 0l.949-.316-.003-.01-.004-.008-.942.334zm-1.957-1.957l-.371.929.018.007.02.007.333-.943zm0-.13l.196.98.07-.014.068-.024-.334-.942zm1.957-1.957l.942.334.004-.009.003-.008-.95-.317zm.13 0l-.949.317.003.008.004.01.942-.335zm1.957 1.957l-.334.942.067.024.07.014.197-.98zM41.54 28c-.198 0-.404.02-.604.06l.384 1.963c.082-.016.16-.023.22-.023v-2zm-.592.058l-3.038.554.359 1.968 3.038-.555-.359-1.967zm-3.037.554c-2 .362-3.492 2.057-3.762 4.11l1.983.26c.168-1.272 1.07-2.21 2.135-2.402l-.356-1.968zM34.15 32.72l-.128.97 1.982.263.129-.97-1.983-.263zm-.092.805c-.04.129-.05.242-.054.3-.004.062-.004.118-.004.135h2v-.003a.598.598 0 01-.032.16l-1.91-.592zM34 33.96c0 .259.048.528.153.783l1.849-.763v-.001a.11.11 0 01-.002-.02h-2zm.158.796c.127.296.342.63.684.875l1.166-1.625c.018.014.022.021.017.014a.264.264 0 01-.029-.053l-1.838.789zm.684.875c.305.22.699.368 1.124.368v-2c.022 0 .034.004.037.005l.005.002-1.166 1.625zm1.124.368h.09v-2h-.091v2zm5.881-.573a3.334 3.334 0 001.623-.618l-1.18-1.614a1.334 1.334 0 01-.644.242l.201 1.99zm1.608-.607c.476-.335.85-.78 1.112-1.287l-1.778-.918a1.565 1.565 0 01-.485.57l1.151 1.635zm1.114-1.291a3.8 3.8 0 00.385-1.25l-1.985-.24a1.78 1.78 0 01-.181.58l1.78.91zm.384-1.238l.013-.097-1.983-.263-.013.097 1.983.263zm.016-.126c.012-.116.031-.292.031-.477h-2c0 .065-.007.138-.02.272l1.989.205zm.031-.477c0-.6-.14-1.181-.4-1.706l-1.791.89c.124.252.191.529.191.816h2zm-.4-1.703a3.661 3.661 0 00-1.255-1.429l-1.11 1.663c.236.159.436.375.572.65l1.794-.884zm-1.241-1.42A3.172 3.172 0 0041.54 28v2c.257 0 .484.075.68.21l1.138-1.644zm-1.265 3.213l-.012.097 1.982.264.013-.098-1.983-.263zm-.014.106a.613.613 0 01-.066.215l1.758.953c.15-.276.252-.59.293-.922l-1.984-.246zm-.065.211a.672.672 0 01-.183.232l1.117 1.66c.377-.254.641-.603.821-.932l-1.755-.96zm-.22.258a.32.32 0 01-.166.069l.107 1.997a2.314 2.314 0 001.25-.458l-1.19-1.608zm-5.804.635h-.013v2h.013v-2zm-.013 0a.988.988 0 01.987.956v.03c0 .001 0 .002-1 .002h-1v.007a.2.2 0 00.001.024 1.028 1.028 0 00.094.397 1.012 1.012 0 00.918.585v-2zm-.012.987h1v-.028h-2v.029h1zm.991.103l.129-.97-1.983-.263-.129.97 1.983.264zm.13-.975c.104-.829.697-1.425 1.352-1.538l-.337-1.971c-1.611.276-2.796 1.647-3 3.257l1.985.252zm1.363-1.54l3.038-.554-.358-1.967-3.04.554.36 1.967zm3.011-.55l.036-.005a2.302 2.302 0 01.064-.01h.005v-2c-.184 0-.35.03-.409.039l.304 1.977zm.105-.015a.5.5 0 01.27.084l1.058-1.698a2.498 2.498 0 00-1.328-.386v2zm.25.07c.089.06.176.151.238.272l1.78-.91a2.713 2.713 0 00-.92-1.032l-1.099 1.67zm.221.238a.86.86 0 01.087.368h2c0-.437-.102-.843-.273-1.21l-1.814.842zm.132.072a1.818 1.818 0 00-.083.532h2a.306.306 0 01-.006.06l-1.91-.591zm4.806-9.977a2.262 2.262 0 00-1.245-.371v2c.062 0 .113.02.14.037l1.105-1.666zm-1.245-.371c-.033 0-.206-.005-.396.042l.483 1.94a.589.589 0 01-.102.017h-.008.023v-2zm-.258.018c-.217.023-.54.046-.871.046v2c.413 0 .808-.029 1.079-.057l-.208-1.99zm-.871.046c-.239 0-.491-.012-.744-.035l-.18 1.992c.31.028.623.043.924.043v-2zm-.744-.035c-.4-.036-.72-.091-.918-.157l-.63 1.898c.419.139.92.21 1.367.251l.18-1.992zm-.918-.157a.806.806 0 01-.171-.079l-1.056 1.699c.166.103.365.201.598.278l.63-1.898zm-.205-.1a.519.519 0 01.17.16l-1.662 1.114c.084.125.241.316.504.466l.988-1.74zm.24.285L41 16.964l-1.804.865 1.976 4.122 1.804-.864zm-2.203-2.951c.112-.103.333-.293.506-.464l-1.41-1.418c-.136.134-.249.226-.444.404l1.348 1.477zm.506-.464a8.515 8.515 0 001.89-2.836l-1.854-.75a6.513 6.513 0 01-1.447 2.168l1.41 1.418zm1.888-2.831a8.57 8.57 0 00.64-3.239h-2c0 .84-.168 1.694-.49 2.48l1.85.759zm.64-3.239c0-1.735-.525-3.47-1.599-4.972L40.58 7.793a6.516 6.516 0 011.225 3.809h2zM42.19 6.609c-.46-.61-1.358-.808-2.038-.301L41.35 7.91a.543.543 0 01-.755-.098l1.597-1.204zm-2.038-.301c-.61.456-.805 1.335-.34 2.008l1.645-1.137a.534.534 0 01-.109.732l-1.196-1.603zm-.33 2.023a5.588 5.588 0 011.045 3.271h2a7.588 7.588 0 00-1.42-4.438l-1.624 1.167zm1.045 3.271c0 .726-.142 1.455-.417 2.144l1.858.74c.367-.918.559-1.9.559-2.884h-2zm-.412 2.131a5.863 5.863 0 01-1.25 1.877l1.423 1.404a7.862 7.862 0 001.675-2.514l-1.848-.767zm-1.244 1.87a5.63 5.63 0 01-1.874 1.236l.745 1.856a7.628 7.628 0 002.54-1.674l-1.411-1.418zm-1.869 1.234a5.83 5.83 0 01-2.148.415v2a7.85 7.85 0 002.883-.555l-.735-1.86zm-2.148.415a5.83 5.83 0 01-2.147-.415l-.735 1.86a7.831 7.831 0 002.883.555v-2zm-2.147-.415a5.503 5.503 0 01-1.87-1.234l-1.41 1.418a7.504 7.504 0 002.545 1.676l.735-1.86zm-1.87-1.234a5.53 5.53 0 01-1.238-1.857l-1.858.74a7.528 7.528 0 001.686 2.535l1.41-1.418zm-1.243-1.87a5.56 5.56 0 01-.424-2.131h-2c0 .985.192 1.97.576 2.898l1.848-.767zm-.424-2.131c0-1.173.359-2.34 1.098-3.335l-1.605-1.193a7.565 7.565 0 00-1.494 4.528h2zm1.1-3.337l4.747-6.433L33.75.644l-4.747 6.433 1.609 1.188zm4.774-6.47a.353.353 0 01-.132.115L34.445.08c-.26.116-.523.305-.722.601l1.662 1.114zm-.09.096a.286.286 0 01-.067.025.144.144 0 01-.032.003v-2c-.244 0-.529.05-.792.181l.89 1.79zm-.1.028a.146.146 0 01-.032-.003.286.286 0 01-.066-.025l.89-1.79a1.805 1.805 0 00-.791-.182v2zm-.057-.009a.337.337 0 01-.077-.047c-.02-.017-.024-.024-.012-.009L36.625.622a1.748 1.748 0 00-.679-.541l-.808 1.83zm-.105-.078l.923 1.251 1.61-1.188L36.64.644l-1.608 1.188zm.93 1.259c.459.61 1.358.809 2.037.301L36.804 1.79c.27-.2.604-.103.755.098L35.962 3.09zM38 3.392c.613-.457.818-1.358.303-2.041l-1.596 1.204a.549.549 0 01.097-.766L38 3.392zm.31-2.033L37.385.108l-1.61 1.188.925 1.25 1.608-1.187zM37.39.114a2.646 2.646 0 00-1.011-.84l-.853 1.81a.629.629 0 01.246.206L37.39.114zm-1.011-.84A2.777 2.777 0 0035.196-1v2c.09 0 .201.022.33.083l.853-1.809zM35.196-1c-.413 0-.835.1-1.203.283l.89 1.791A.737.737 0 0135.197 1v-2zm-1.184.274a2.648 2.648 0 00-1.011.84l1.618 1.176a.648.648 0 01.246-.207l-.853-1.809zm-1.007.834l-4.747 6.433 1.609 1.188 4.747-6.433L33.005.108zm-4.748 6.433a8.528 8.528 0 00-1.67 5.074h2a6.53 6.53 0 011.28-3.887l-1.61-1.187zm-1.67 5.074c0 1.1.218 2.211.64 3.239l1.85-.76a6.571 6.571 0 01-.49-2.48h-2zm.637 3.234a8.644 8.644 0 001.884 2.83l1.423-1.406a6.648 6.648 0 01-1.453-2.175l-1.854.751zm1.89 2.835a8.624 8.624 0 002.844 1.877l.753-1.853a6.623 6.623 0 01-2.186-1.442l-1.411 1.418zm2.844 1.877a8.604 8.604 0 003.238.622v-2a6.6 6.6 0 01-2.485-.475l-.753 1.853zm3.238.622c1.096 0 2.2-.2 3.237-.622l-.753-1.853a6.605 6.605 0 01-2.484.475v2zm3.23-.62a8.354 8.354 0 001.473-.767l-1.093-1.675a6.366 6.366 0 01-1.119.585l.74 1.858zm.025-1.173l1.694 3.536 1.803-.864-1.693-3.536-1.804.864zm2.29 2.151c-.751.241-1.676.475-2.728.687l.395 1.96a27.743 27.743 0 002.944-.742l-.611-1.905zm-2.727.687c-1.937.388-4.275.728-6.771.954l.18 1.992c2.56-.232 4.97-.582 6.984-.985l-.393-1.961zm-6.77.954a87.089 87.089 0 01-7.738.367v2c2.64 0 5.352-.143 7.917-.375l-.18-1.991zm-7.738.367c-3.423 0-7-.228-10.164-.63l-.252 1.983c3.25.414 6.911.646 10.416.646v-2zm-10.171-.632a53.13 53.13 0 01-4.32-.688l-.4 1.959c1.337.274 2.853.52 4.482.715l.238-1.986zM9.02 21.23c-1.074-.226-2.012-.46-2.762-.701l-.611 1.904c.841.27 1.853.52 2.96.754l.413-1.957zm-2.138.62l2.58-6.497-1.86-.738-2.579 6.497 1.859.738zm2.5-6.339c.673-1.086 1.849-1.793 3.158-1.918l-.19-1.991c-1.898.181-3.648 1.21-4.668 2.855l1.7 1.054zm3.08-1.914l1.578-.025-.033-2-1.578.026.032 2zm.592-1.269a1.574 1.574 0 00-.056.41h2c0 .074-.019.132-.005.078l-1.94-.488zm-.056.41c0 .317.099.627.255.877l1.694-1.065a.31.31 0 01.036.079.377.377 0 01.015.109h-2zm.304.947c.023.03.144.201.329.34l1.196-1.604a.561.561 0 01.087.08l.003.004-.018-.025-1.597 1.204zm.329.34c.09.067.299.212.582.268l.39-1.961a.648.648 0 01.174.06.268.268 0 01.05.03l-1.196 1.602zm.408.216c.088.036.213.093.35.17l.988-1.738a4.885 4.885 0 00-.6-.29l-.739 1.858zm.342.166c.241.14.552.369.922.66l1.239-1.57c-.375-.295-.782-.602-1.157-.82l-1.004 1.73zm.901.644c.501.417 1.011.935 1.426 1.43l1.533-1.284a13.73 13.73 0 00-1.679-1.683l-1.28 1.537zm1.435 1.441c.196.227.36.456.491.662l1.688-1.072a7.71 7.71 0 00-.664-.895l-1.515 1.305zm.491.662c.127.2.21.37.245.463l1.866-.722a4.847 4.847 0 00-.423-.813l-1.688 1.072zm.25.475a2.2 2.2 0 00.161.322l1.713-1.033-.013-.022-.005-.013-1.856.746zm.251.448c.134.16.316.32.54.432l.89-1.79a.4.4 0 01.103.074l-1.533 1.284zm.593.456c.155.067.385.144.661.144v-2c.05 0 .087.008.107.012.019.005.025.009.016.005l-.784 1.84zm.661.144c.315 0 .625-.097.875-.253l-1.056-1.698a.308.308 0 01.181-.049v2zm.945-.3c.03-.023.202-.143.341-.327l-1.597-1.204a.569.569 0 01.08-.087c.006-.005.008-.006.004-.004l-.024.019 1.196 1.603zm.341-.327a1.46 1.46 0 00.272-.584l-1.96-.394a.65.65 0 01.091-.226l1.597 1.204zm.249-.492a1.366 1.366 0 01.114-.218l-1.68-1.086a2.954 2.954 0 00-.349.726l1.915.578zm.136-.256c.144-.244.378-.57.653-.902l-1.542-1.274c-.315.382-.62.797-.836 1.165l1.725 1.011zm.647-.895c.424-.504.931-1.008 1.43-1.411l-1.26-1.555a12.898 12.898 0 00-1.7 1.678l1.53 1.288zm1.449-1.428c.228-.194.458-.358.666-.488l-1.064-1.694a7.79 7.79 0 00-.9.66l1.298 1.522zm.666-.488c.2-.126.373-.209.467-.245l-.715-1.868a4.86 4.86 0 00-.816.42l1.064 1.693zm.48-.25c.035-.014.23-.085.407-.217l-1.196-1.603a.598.598 0 01.087-.053l-.004.002-.034.013.74 1.858zm.447-.248c.166-.138.344-.335.46-.604l-1.837-.791a.387.387 0 01.1-.145l1.277 1.54zm.46-.604c.067-.155.146-.386.146-.664h-2a.47.47 0 01.012-.11c.005-.02.01-.026.005-.018l1.837.792zm.146-.664c0-.316-.1-.627-.256-.877l-1.694 1.064a.315.315 0 01-.05-.187h2zm-.304-.947c-.09-.117-.193-.218-.222-.247l-1.41 1.418a2.786 2.786 0 01.04.04l.005.006-.01-.012 1.597-1.205zm-.33-.34a1.467 1.467 0 00-.582-.268l-.39 1.962a.645.645 0 01-.223-.09l1.196-1.603zm-.407-.216a2.882 2.882 0 01-.35-.17l-.989 1.738c.223.127.431.223.6.29l.739-1.858zm-.343-.166a7.398 7.398 0 01-.905-.66l-1.27 1.544c.386.318.794.627 1.173.846l1.003-1.73zm-.9-.656a10.895 10.895 0 01-1.42-1.422l-1.547 1.266a12.89 12.89 0 001.686 1.692l1.28-1.536zm-1.418-1.42a7.685 7.685 0 01-.509-.684L19.03 9.368c.186.293.42.597.646.874l1.551-1.262zm-.509-.684a2.942 2.942 0 01-.245-.463l-1.865.722c.092.239.24.527.422.813l1.688-1.072zm-.25-.475c-.014-.036-.086-.231-.219-.408l-1.597 1.204a.608.608 0 01-.054-.087c-.002-.004-.002-.003.001.004l.014.033 1.855-.746zm-.25-.448a1.624 1.624 0 00-.606-.456l-.784 1.84a.384.384 0 01-.144-.1l1.533-1.284zm-.553-.432a1.607 1.607 0 00-.702-.155v2a.42.42 0 01-.096-.016.6.6 0 01-.092-.038l.89-1.79zm-.702-.155c-.315 0-.624.097-.874.253l1.056 1.698a.307.307 0 01-.182.049v-2zm-.944.3c-.031.023-.203.143-.342.327l1.597 1.204a.56.56 0 01-.08.087l-.004.004.025-.019-1.196-1.603zm-.342.327a1.46 1.46 0 00-.271.584l1.96.394a.65.65 0 01-.092.226l-1.597-1.204zm-.219.408a2.853 2.853 0 01-.17.347l1.734.996c.127-.221.224-.429.292-.597l-1.856-.746zm-.166.34c-.15.256-.372.576-.639.886l1.515 1.306c.349-.405.64-.824.85-1.18L17.293 8.16zm-.646.895c-.42.498-.94 1.006-1.439 1.419l1.277 1.54a13.81 13.81 0 001.692-1.67l-1.53-1.289zm-1.445 1.424a5.53 5.53 0 01-.423.324l1.134 1.647c.195-.134.388-.282.577-.441l-1.288-1.53zm.126.148l-2.925.05.035 2 2.925-.05-.035-2zm-2.908.05h-.038v2h.038v-2zm-.131.005a7.24 7.24 0 00-5.432 3.29l1.683 1.079a5.241 5.241 0 013.935-2.378l-.186-1.991zm-5.484 3.38l-.02.038-.018.038 1.787.899.019-.039.02-.038-1.788-.898zm-.074.156l-2.759 6.93 1.859.74 2.758-6.93-1.858-.74zM4.196 20.81a12.612 12.612 0 00-.077.077l1.41 1.418.04-.039.038-.038-1.41-1.418zm-.01.016a.436.436 0 01.022-.017l.005-.004-.004.003a1.014 1.014 0 01-.127.058l.715 1.868c.214-.082.47-.206.666-.368l-1.277-1.54zm-.116.045c-.13.051-.368.104-.699.139l.212 1.988c.388-.04.842-.116 1.226-.269l-.74-1.858zm-.699.139a9.65 9.65 0 01-.984.058v2c.39 0 .812-.029 1.196-.07l-.212-1.988zm-.984.058c-.343 0-.655-.023-.89-.046l-.197 1.99c.278.028.659.056 1.087.056v-2zm-.988-.051l.054.002h-.008a1.42 1.42 0 00-.2-.014v2a.556.556 0 01-.055-.003h.008a2.263 2.263 0 00.2.015v-2zm-.154-.013c-.314 0-.62.07-.887.191l.824 1.822a.156.156 0 01.063-.013v-2zm-.854.177a2.245 2.245 0 00-.996.803l1.646 1.137a.246.246 0 01.108-.09l-.758-1.85zm-.978.779A2.16 2.16 0 00-1 23.242h2a.17.17 0 01.023-.096l-1.61-1.186zM-1 23.242V24.8h2v-1.557h-2zm0 1.557c0 .579.215 1.094.575 1.496l1.491-1.332A.223.223 0 011 24.799h-2zm.573 1.494c.353.398.857.668 1.407.737l.247-1.985a.267.267 0 01-.158-.08l-1.496 1.328zm1.418.738l1.796.204.226-1.987-1.797-.204-.225 1.987zm1.027-1.26L.58 28.464l1.765.942 1.437-2.694-1.764-.941zM.515 28.617l-.013.038 1.896.636.013-.039-1.896-.635zm.017-.041a8.345 8.345 0 00-.685 3.307h2c0-.86.177-1.72.52-2.513l-1.835-.794zm-.685 3.307c0 .297.014.628.061.96l1.98-.285a4.833 4.833 0 01-.041-.675h-2zm.057.929l.334 2.961 1.987-.224-.333-2.961-1.988.224zm.333 2.95a4.743 4.743 0 001.347 2.847l1.426-1.403a2.743 2.743 0 01-.783-1.646l-1.99.203zm1.06 2.145v2.464h2v-2.464h-2zm0 2.464c0 .495.105.983.283 1.407l1.844-.773a1.687 1.687 0 01-.127-.634h-2zm.288 1.42a3.67 3.67 0 001.327 1.596l1.105-1.667a1.669 1.669 0 01-.598-.727l-1.834.797zm1.327 1.596c.58.384 1.284.613 2.028.613v-2c-.334 0-.656-.103-.923-.28l-1.105 1.667zM4.94 44h2.09v-2H4.94v2zm2.091 0c.496 0 .985-.104 1.41-.28l-.766-1.848c-.191.08-.42.128-.644.128v2zm1.422-.286a3.75 3.75 0 001.591-1.302l-1.637-1.147a1.75 1.75 0 01-.744.612l.79 1.837zm1.603-1.319a3.644 3.644 0 00.619-2.024h-2c0 .328-.103.647-.28.91l1.661 1.114zm.619-2.024v-1.328h-2v1.328h2zm-1-.328h6.736v-2H9.675v2zm5.736-1v1.187h2v-1.187h-2zm0 1.187c0 .381.121.759.375 1.074l1.558-1.254a.313.313 0 01.067.18h-2zm.375 1.074c.098.123.286.329.592.459l.784-1.84c.126.054.186.132.182.127l-1.558 1.254zm.432.372c.285.19.597.244.847.244v-2c.02 0 .126.002.258.09l-1.105 1.666zm.847.244h12.87v-2h-12.87v2zm12.87 0c.266 0 .54-.066.789-.208l-.988-1.738a.401.401 0 01.199-.054v2zm.74-.182c.343-.17.58-.44.718-.714l-1.787-.898a.396.396 0 01.178-.178l.891 1.79zm.671-.631a1.66 1.66 0 00.243-.877h-2c0-.014.002-.034.008-.06a.433.433 0 01.056-.127l1.693 1.064zm.243-.877v-1.187h-2v1.187h2zm-1-.187h6.736v-2H30.59v2zm5.736-1v1.328h2v-1.328h-2zm0 1.328c0 .495.106.983.283 1.407l1.845-.773a1.687 1.687 0 01-.128-.634h-2zm.289 1.42a3.667 3.667 0 001.326 1.596l1.106-1.667a1.67 1.67 0 01-.598-.727l-1.834.797zm1.326 1.596c.58.384 1.285.613 2.029.613v-2c-.334 0-.657-.103-.923-.28l-1.106 1.667zm2.03.613h2.078v-2H39.97v2zm2.078 0c.51 0 .987-.105 1.41-.28l-.766-1.848a1.68 1.68 0 01-.644.128v2zm1.422-.286a3.675 3.675 0 001.603-1.319l-1.661-1.113a1.677 1.677 0 01-.732.595l.79 1.837zm1.603-1.319a3.644 3.644 0 00.618-2.024h-2c0 .328-.102.647-.28.91l1.662 1.114zm.618-2.024v-2.464h-2v2.464h2zm-.287-1.762a4.832 4.832 0 001.358-2.832l-1.986-.232a2.831 2.831 0 01-.798 1.661l1.426 1.403zm1.359-2.836l.334-2.961-1.988-.224-.333 2.961 1.987.224zm.335-2.978c.026-.263.056-.59.056-.912h-2c0 .213-.02.449-.047.722l1.991.19zm.056-.912a8.453 8.453 0 00-.683-3.315l-1.84.785c.346.81.523 1.672.523 2.53h2zm-.655-3.24l-.012-.039-1.897.636.013.038 1.896-.635zm-.078-.192l-1.438-2.693-1.764.942 1.437 2.693 1.764-.942zm-2.207-1.229l1.797-.204-.226-1.987-1.797.204.226 1.988zm1.807-.205a2.205 2.205 0 001.426-.759l-1.533-1.284c-.01.012-.05.047-.14.058l.247 1.985zm1.407-.737c.338-.381.573-.905.573-1.493h-2a.26.26 0 01-.069.166l1.496 1.327zM48 24.787v-1.558h-2v1.558h2zm0-1.558c0-.336-.075-.62-.18-.87l-1.845.772a.371.371 0 01.021.062c.002.01.004.02.004.036h2zm-.246-1.001a2.638 2.638 0 00-.779-.828l-1.105 1.667c.044.03.115.1.171.194l1.713-1.033zM18.964 10.85c.264-.319.513-.652.725-.998l-1.706-1.044a6.655 6.655 0 01-.558.764l1.539 1.278zm.703-.963a2.7 2.7 0 00.19-.325l-1.786-.898a.931.931 0 01-.066.11l1.662 1.113zm-1.703-.774a.244.244 0 000 .025 1.006 1.006 0 00.988.988h.025v-2c-.027 0 .036-.002.102.006a.987.987 0 01.592.283c.248.247.28.534.287.594.008.067.006.132.006.104h-2zm.152.52c.25.425.566.866.93 1.299l1.53-1.29a7.634 7.634 0 01-.737-1.024l-1.723 1.016zm.934 1.303a14.72 14.72 0 001.807 1.783l1.27-1.545a12.8 12.8 0 01-1.555-1.535l-1.522 1.297zm1.807 1.783c.32.263.655.51 1.002.721l1.036-1.71a6.699 6.699 0 01-.768-.556l-1.27 1.545zm.968.7c.069.045.132.081.176.106l.082.046 1.025-1.717a3.256 3.256 0 00-.103-.059c-.009-.005-.016-.01-.024-.013a.814.814 0 01-.051-.03l-1.105 1.666zm.77-.707v-1h-.033a1.182 1.182 0 00-.132.014 1.016 1.016 0 00-.676.435 1.013 1.013 0 00-.171.564h2a.987.987 0 01-.955.987h-.03c-.001 0-.002 0-.002-1zm-.516-.85a9.82 9.82 0 00-1.305.938l1.282 1.535a7.853 7.853 0 011.03-.746l-1.007-1.728zm-1.309.941a14.72 14.72 0 00-1.792 1.798l1.538 1.277c.447-.538.995-1.083 1.544-1.546l-1.29-1.529zm-1.792 1.798a8.626 8.626 0 00-.726.997l1.706 1.044a6.64 6.64 0 01.558-.764l-1.538-1.277zm-.703.962a2.744 2.744 0 00-.108.176l-.046.082 1.712 1.033a2.83 2.83 0 00.043-.074l.016-.029.014-.024a.911.911 0 01.03-.05l-1.661-1.114zm1.407.065l-.012-.012-1.411 1.417.013.013 1.41-1.418zm.144.189a9.783 9.783 0 00-.944-1.299l-1.53 1.29c.314.37.571.72.75 1.024l1.724-1.015zm-.948-1.303a14.728 14.728 0 00-1.807-1.783l-1.27 1.545c.542.445 1.09.99 1.555 1.536l1.522-1.298zm-1.807-1.783a8.667 8.667 0 00-1.002-.72l-1.036 1.71c.243.147.498.333.769.555l1.27-1.545zm-.967-.699a2.805 2.805 0 00-.177-.107c-.055-.031-.064-.035-.081-.046l-1.025 1.718.074.042.028.016.024.014c.03.016.044.025.052.03l1.105-1.667zm-.77 1.706h.024a1.006 1.006 0 00.982-.894c.005-.046.005-.082.006-.094v-.025h-2c0 .028-.002-.037.006-.104a.994.994 0 01.287-.594.994.994 0 01.592-.283c.066-.008.13-.006.102-.006v2zm.524-.154c.127-.076.29-.173.472-.304l-1.172-1.62a4.15 4.15 0 01-.325.207l1.025 1.717zm-.114-1.114v1h.013v-2h-.012v1zm.555.84c.306-.198.602-.434.85-.632l-1.245-1.565a9.12 9.12 0 01-.69.517l1.085 1.68zm.881-.658a15.783 15.783 0 001.784-1.802l-1.539-1.278a13.798 13.798 0 01-1.553 1.567l1.308 1.513zM7.674 40.66a.696.696 0 01-.246.306l1.106 1.667c.44-.293.784-.72.985-1.2l-1.845-.773zm-.228.294a.784.784 0 01-.427.139v2a2.78 2.78 0 001.497-.449l-1.07-1.69zm-.427.139H4.927v2H7.02v-2zm-2.092 0a.644.644 0 01-.268-.058L3.86 42.87c.321.14.675.224 1.066.224v-2zm-.284-.064a.647.647 0 01-.298-.24L2.66 41.866c.298.465.733.81 1.217 1.01l.766-1.847zm-.315-.267a.66.66 0 01-.12-.392h-2c0 .561.165 1.077.47 1.522l1.65-1.13zm-.12-.392v-2.132h-2v2.132h2zm-1.135-1.14l5.53.752.27-1.982-5.53-.753-.27 1.982zm4.665-.239v1.392h2v-1.392h-2zm0 1.392a.62.62 0 01-.057.26l1.831.806c.141-.321.226-.675.226-1.067h-2zM29.64 39H17.322v2H29.64v-2zm-11.318 1v-2.694h-2V40h2zm-1-1.694H29.64v-2H17.322v2zm11.318-1V40h2v-2.694h-2zm14.063 3.354a.696.696 0 01-.246.306l1.105 1.667c.441-.293.784-.72.986-1.2l-1.845-.773zm-.228.294a.784.784 0 01-.428.139v2a2.78 2.78 0 001.497-.449l-1.07-1.69zm-.428.139H39.97v2h2.078v-2zm-2.078 0a.644.644 0 01-.269-.058l-.798 1.834c.322.14.675.224 1.067.224v-2zm-.285-.064a.648.648 0 01-.297-.24l-1.685 1.077c.297.465.733.81 1.217 1.01l.765-1.847zm-.297-.24a.763.763 0 01-.138-.42h-2c0 .585.191 1.088.453 1.497l1.685-1.078zm-.138-.42v-1.39h-2v1.39h2zm-.865-.4l5.53-.753-.27-1.981-5.53.753.27 1.981zm4.395-1.743v2.131h2v-2.131h-2zm.002 2.083a.888.888 0 01-.07.335l1.83.805c.143-.327.22-.665.237-1.044l-1.997-.096zm2.27-15.485c0-.123.038-.326.217-.505l1.41 1.418c.283-.28.373-.637.373-.913h-2zm.143-.423a.754.754 0 01.263-.206.603.603 0 01.17-.055l.282 1.98c.225-.032.572-.128.844-.465l-1.559-1.254zm.466-.265l-2.463.268.216 1.988 2.463-.268-.216-1.988zm-2.438.266c-.52.043-.931.353-1.153.758l1.753.961a.518.518 0 01-.163.177.569.569 0 01-.272.097l-.165-1.993zm-1.153.758c-.242.44-.242.956 0 1.395l1.753-.961a.552.552 0 01.066.264.552.552 0 01-.066.263l-1.753-.961zm-.006 1.384l1.745 3.28 1.765-.939-1.745-3.28-1.765.94zm1.709 3.207c.293.68.445 1.413.445 2.144h2a7.433 7.433 0 00-.608-2.936l-1.837.792zm.445 2.144c0 .205-.011.4-.033.61l1.988.21c.03-.276.045-.54.045-.82h-2zm-.033.603l-.333 2.96 1.987.225.334-2.962-1.988-.223zm-.333 2.96c-.05.436-.247.817-.546 1.114l1.41 1.418a3.855 3.855 0 001.123-2.306l-1.987-.226zm.024.832l-6.274.855.27 1.982 6.274-.855-.27-1.982zm-6.139.846h-7.172v2h7.172v-2zm-6.172 1V37.09h-2v1.047h2zm0-1.047a1.7 1.7 0 00-.375-1.073L29.63 37.27a.313.313 0 01-.066-.18h2zm-.375-1.073a1.531 1.531 0 00-.593-.459l-.784 1.84c-.126-.054-.186-.132-.182-.128l1.559-1.253zm-.49-.409c-.24-.136-.5-.207-.79-.207v2a.432.432 0 01-.2-.054l.99-1.739zm-.79-.207H17.052v2H29.91v-2zm-12.857 0c-.265 0-.54.066-.789.207l.988 1.74a.403.403 0 01-.199.053v-2zm-.74.181a1.61 1.61 0 00-.718.715l1.787.898a.396.396 0 01-.178.178l-.891-1.79zm-.67.632a1.657 1.657 0 00-.244.877h2a.252.252 0 01-.008.06.437.437 0 01-.055.127l-1.694-1.064zm-.244.877v1.046h2V37.09h-2zm1 .046h-7.16v2h7.16v-2zm-7.025.01L3.1 36.29l-.27 1.982 6.274.855.27-1.982zm-5.704-.574a1.804 1.804 0 01-.53-1.098l-1.992.193c.089.913.51 1.725 1.112 2.323l1.41-1.418zm-.533-1.117l-.346-2.962-1.987.233.347 2.96 1.986-.231zm-.345-2.95a5.668 5.668 0 01-.033-.61h-2c0 .28.015.544.044.82l1.989-.21zm-.033-.61c0-.73.151-1.464.444-2.144l-1.836-.792a7.43 7.43 0 00-.608 2.936h2zm.409-2.07l1.745-3.28-1.766-.94-1.745 3.28 1.766.94zm1.718-3.234c.277-.46.254-1.007.02-1.431l-1.753.961a.564.564 0 01.02-.563l1.713 1.033zm.02-1.431a1.448 1.448 0 00-1.153-.758l-.165 1.993a.568.568 0 01-.271-.097.517.517 0 01-.164-.177l1.754-.961zm-1.127-.756l-2.464-.268-.216 1.988 2.464.268.216-1.988zm-2.408-.26a.599.599 0 01.336.175l-1.41 1.418c.21.21.481.336.747.38l.327-1.973zm.336.175c.18.179.218.381.218.505h-2c0 .276.09.632.372.913l1.41-1.418zm.218.505v-1.557h-2v1.557h2zm0-1.557c0 .128-.04.228-.026.19L0 22.822c-.013.039-.077.215-.077.446h2zm-.081.321a.601.601 0 01-.18.212L.467 22.198a1.398 1.398 0 00-.411.493l1.787.898zm-.18.212a.756.756 0 01-.431.148v-2c-.227 0-.503.054-.765.25L1.663 23.8zm-.431.148h.038v-2h-.038v2zm.038 0h.013v-2H1.27v2zm-.077-.004c.302.027.718.055 1.168.055v-2c-.372 0-.725-.023-.988-.047l-.18 1.992zM2.361 24c.323 0 .659-.014.994-.042l-.166-1.993c-.28.023-.561.035-.828.035v2zm.994-.042a6.945 6.945 0 001.592-.303l-.63-1.898a4.976 4.976 0 01-1.128.208l.166 1.993zm1.626-.315c.187-.07.495-.18.78-.362l-1.078-1.685c-.074.047-.176.09-.4.173l.698 1.874zm.794-.372c.122-.08.219-.159.304-.229l-1.277-1.54a1.38 1.38 0 01-.132.103l1.105 1.666zm-.654-.051c.927.312 2.036.59 3.266.837l.394-1.961c-1.182-.238-2.203-.496-3.022-.772l-.638 1.896zm3.264.836c2.056.417 4.492.767 7.09 1l.178-1.993c-2.535-.227-4.897-.567-6.87-.967l-.398 1.96zm7.085.999c2.585.245 5.337.374 7.998.374v-2c-2.6 0-5.288-.126-7.81-.365l-.188 1.99zm7.998.374c3.558 0 7.256-.245 10.54-.645l-.242-1.986a87.142 87.142 0 01-10.298.631v2zm10.544-.646a64.637 64.637 0 004.55-.726l-.394-1.961a62.624 62.624 0 01-4.407.703l.251 1.984zm4.55-.726a28.2 28.2 0 003.274-.848l-.63-1.899c-.84.279-1.865.55-3.038.786l.394 1.96zm2.254-1.089l.02.02.018.019 1.41-1.418-.018-.02a3.458 3.458 0 01-.02-.018l-1.41 1.417zm.121.112c.3.24.633.398.916.508l.722-1.866a1.53 1.53 0 01-.393-.207l-1.245 1.565zm.942.517c.455.162.931.25 1.38.306l.246-1.985a4.586 4.586 0 01-.956-.205l-.67 1.884zm1.38.306c.468.058.924.071 1.329.071v-2c-.366 0-.73-.012-1.083-.056l-.247 1.985zm1.329.071c.45 0 .866-.028 1.168-.055l-.18-1.992c-.263.024-.617.047-.988.047v2zm1.078-.05h.012v-2h-.012v2zm.012 0h.039v-2h-.037v2zm.039 0a.765.765 0 01-.184-.023c-.024-.006-.041-.012-.015-.003l.63-1.898c-.006-.002-.202-.077-.431-.077v2zm-.33-.08a.6.6 0 01-.212-.178l1.597-1.204a1.4 1.4 0 00-.494-.409l-.89 1.791zm-.212-.178a.767.767 0 01-.15-.424h2c0-.217-.044-.503-.253-.78l-1.597 1.204zm-.15-.424v1.583h2v-1.583h-2zm1 2.583h.026v-2h-.026v2zM31.543 32H14.457v2h17.086v-2zm-17.086 0c-.89 0-1.457.757-1.457 1.5h2c0 .187-.161.5-.543.5v-2zM13 33.5c0 .743.567 1.5 1.457 1.5v-2c.382 0 .543.313.543.5h-2zm1.457 1.5h17.086v-2H14.457v2zm17.086 0c.89 0 1.457-.757 1.457-1.5h-2c0-.187.161-.5.543-.5v2zM33 33.5c0-.743-.567-1.5-1.457-1.5v2a.525.525 0 01-.543-.5h2zm-20.012.202l-.129-.972-1.982.262.128.973 1.983-.263zm-.128-.971c-.27-2.05-1.743-3.754-3.748-4.118l-.357 1.968c1.058.192 1.953 1.127 2.122 2.41l1.983-.26zm-3.747-4.118l-3.037-.555-.36 1.967 3.038.556.36-1.968zm-3.006-.549A2.974 2.974 0 005.484 28v2c.08 0 .15.008.201.02l.422-1.956zM5.484 28a3.37 3.37 0 00-1.796.53l1.07 1.69c.227-.144.48-.22.726-.22v-2zm-1.805.536a3.595 3.595 0 00-1.28 1.439l1.794.883c.136-.275.332-.488.573-.644L3.68 28.536zM2.4 29.972a3.837 3.837 0 00-.4 1.709h2c0-.29.067-.568.192-.82L2.4 29.972zM2 31.681c0 .184.019.36.031.477l1.99-.205A2.796 2.796 0 014 31.681H2zm.034.506l.013.097 1.983-.262-.013-.098-1.983.263zm.011.08c.054.469.198.889.386 1.257l1.782-.909a1.695 1.695 0 01-.181-.577l-1.987.23zm.388 1.26c.26.508.634.954 1.11 1.29l1.153-1.634a1.57 1.57 0 01-.485-.571l-1.778.915zm1.11 1.29a3.38 3.38 0 001.609.608l.201-1.99a1.38 1.38 0 01-.657-.252l-1.153 1.634zM10.928 36h.091v-2h-.091v2zm.09 0c.271 0 .548-.058.806-.182l-.865-1.803a.136.136 0 01.06-.015v2zm.82-.188c.298-.149.61-.389.83-.745l-1.702-1.05c.007-.013.012-.016.009-.014a.18.18 0 01-.029.018l.892 1.79zm.83-.745c.194-.315.316-.704.316-1.109h-2c0 .003 0 .012-.005.027a.142.142 0 01-.013.031l1.701 1.051zm.05-.429a1.057 1.057 0 00.282-.737c0-.052-.004-.098-.004-.104-.002-.021 0 .005 0 .036h-2c0 .053.005.101.005.103L11 33.901a.945.945 0 01.25-.623l1.467 1.36zm-2.381-1.332l-.013.014 1.467 1.36.012-.014-1.466-1.36zm.72-.306a1.01 1.01 0 00-.734.315l-.009.009a.032.032 0 01-.002.002l-.001.001.002-.002.007-.008a.956.956 0 01.29-.208.991.991 0 01.421-.095v2a1.008 1.008 0 00.735-.315l.008-.009c.002 0 .002-.002.003-.002v-.001l-.001.002a.758.758 0 01-.04.04.983.983 0 01-.679.271v-2zm-5.607-.55a.583.583 0 01-.256-.099L4.075 34.01c.327.22.725.382 1.16.429l.215-1.989zm-.22-.073a.642.642 0 01-.2-.22l-1.795.88c.2.41.5.72.804.947l1.191-1.607zm-.218-.255a.622.622 0 01-.067-.217l-1.985.245c.041.333.144.647.293.923l1.76-.951zm-.068-.226L4.93 31.8l-1.983.263.013.097 1.983-.262zm-.016-.118v-.008a.844.844 0 01-.001-.076h-2c0 .078-.002.22.024.39l1.977-.306zm-.001-.084c0-.118.026-.239.087-.37L3.2 30.481a2.864 2.864 0 00-.273 1.212h2zm.07-.337a.622.622 0 01.219-.259l-1.06-1.696a2.61 2.61 0 00-.94 1.047l1.782.908zm.24-.272a.464.464 0 01.247-.071v-2c-.473 0-.949.137-1.348.401l1.1 1.67zm.247-.071h.005a1.514 1.514 0 01.065.01l.035.006.305-1.977c-.059-.009-.225-.04-.41-.04v2zm.078.011l3.037.556.36-1.968-3.038-.555-.36 1.967zm3.036.556c.664.122 1.25.714 1.365 1.555l1.982-.272c-.22-1.604-1.384-2.956-2.985-3.25l-.362 1.967zm1.365 1.55l.129.972 1.982-.262-.128-.972-1.983.262zm.12.841v.014h2v-.014h-2zm1-.986h-.013v2h.013v-2zm26.216-19.619a2.597 2.597 0 01-1.813.712v2c1.197 0 2.323-.44 3.188-1.26L37.3 13.367zm-1.813.712c-.77 0-1.486.601-1.486 1.46h2a.53.53 0 01-.514.54v-2zM34 15.539c0 .86.716 1.461 1.486 1.461v-2a.53.53 0 01.514.54h-2zM35.486 17c1.448 0 2.85-.539 3.883-1.534l-1.387-1.44c-.642.617-1.538.974-2.495.974v2zm3.877-1.528a5.187 5.187 0 001.62-3.348l-1.993-.157a3.187 3.187 0 01-1.002 2.053l1.375 1.452zm1.615-3.296c.024-.18.022-.363.022-.45h-2c0 .117-.002.163-.005.189l1.983.261zm.022-.45c0-1.14-.39-2.235-1.084-3.142L38.327 9.8A3.17 3.17 0 0139 11.726h2zM39.906 8.57a1.512 1.512 0 00-2.03-.313l1.112 1.663a.488.488 0 01-.65-.108l1.568-1.242zm-2.053-.297c-.638.454-.864 1.393-.313 2.089l1.568-1.242a.547.547 0 01-.096.784l-1.159-1.631zm-.32 2.08c.316.408.48.885.48 1.372h2c0-.947-.322-1.852-.898-2.596l-1.581 1.224zm.48 1.372a.828.828 0 01-.002.106l1.978.299c.026-.174.025-.322.025-.405h-2zm-.012.204a2.106 2.106 0 01-.694 1.43l1.359 1.467a4.105 4.105 0 001.333-2.794L38 11.93zM27.26 1.74a3.414 3.414 0 01-.337-.385 1.247 1.247 0 01-.06-.09c-.005-.006-.003-.005.001.004.002.004.02.039.038.093l-1.898.632c.067.2.203.402.305.542.13.177.307.389.537.619L27.26 1.74zm-.364-.396A2.012 2.012 0 0025 0v2c.001 0 .001 0 0 0h.002a.024.024 0 01.008.013l1.885-.67zM25 0c-.864 0-1.613.55-1.895 1.344l1.885.669A.024.024 0 0124.998 2H25c-.001 0-.001 0 0 0V0zm-1.914 1.404c.02-.067.04-.11.045-.119.006-.014.01-.019.006-.013a1.1 1.1 0 01-.06.087 3.592 3.592 0 01-.336.382l1.414 1.414c.22-.22.396-.427.527-.603.065-.087.124-.174.173-.256.037-.062.11-.19.154-.343l-1.923-.55zm-.357.349a2.803 2.803 0 01-.364.321 1.129 1.129 0 01-.09.06c-.007.004-.006.003.002 0a.534.534 0 01.085-.035l.633 1.898a2.17 2.17 0 00.541-.302c.183-.132.4-.314.63-.552l-1.437-1.39zm-.385.352A2.012 2.012 0 0021 4h2c0-.001 0-.001 0 0v-.002a.024.024 0 01.013-.008l-.67-1.885zM21 4a2 2 0 001.371 1.904L22.985 4a.054.054 0 01.016.008l.002.002a.017.017 0 01-.002-.005L23 4h-2zm1.404 1.914a.731.731 0 01-.119-.045c-.014-.006-.018-.01-.013-.006.011.007.04.025.087.06.09.067.224.178.382.336l1.414-1.414a5.566 5.566 0 00-.603-.527 3.058 3.058 0 00-.256-.173 1.475 1.475 0 00-.343-.154l-.55 1.923zm.337.345c.16.161.27.295.337.386a.811.811 0 01.06.09c.005.006.003.005-.001-.004-.002-.004-.02-.039-.038-.093l1.898-.632a2.14 2.14 0 00-.305-.542 5.389 5.389 0 00-.537-.619L22.74 6.26zm.364.397A2.012 2.012 0 0025 8V6c-.001 0-.001 0 0 0h-.002a.024.024 0 01-.008-.013l-1.885.67zM25 8c.864 0 1.613-.55 1.895-1.344l-1.885-.669a.024.024 0 01-.008.012L25 6c.001 0 .001 0 0 0v2zm1.914-1.404a.735.735 0 01-.045.119c-.006.014-.01.019-.006.013a.969.969 0 01.06-.087 3.71 3.71 0 01.336-.382l-1.414-1.414c-.22.22-.396.427-.527.603a3.064 3.064 0 00-.173.256c-.037.062-.11.19-.154.343l1.923.55zm.345-.337a3.4 3.4 0 01.386-.337c.046-.033.076-.052.09-.06.006-.005.005-.003-.004.001-.004.002-.039.02-.093.038l-.633-1.898a2.17 2.17 0 00-.541.305c-.177.13-.389.307-.619.537L27.26 6.26zm.397-.364A2.012 2.012 0 0029 4h-2c0 .001 0 .001 0 0v.002a.024.024 0 01-.013.008l.67 1.885zM29 4c0-.864-.55-1.613-1.344-1.895l-.669 1.885c.008.003.01.006.012.008L27 4c0-.001 0-.001 0 0h2zm-1.362-1.9c.054.017.089.035.093.037l.004.002a1.205 1.205 0 01-.09-.061 3.4 3.4 0 01-.386-.337l-1.414 1.414c.23.23.442.407.619.537.14.102.342.238.542.305l.632-1.898zm-.95 1.036c-.534.189-1.1.658-1.503 1.062-.404.404-.873.969-1.062 1.503l1.885.668.01-.024a2.123 2.123 0 01.162-.253c.11-.15.256-.317.419-.48a4.54 4.54 0 01.48-.42 2.105 2.105 0 01.253-.16l.024-.011-.668-1.885zM24.17 5.588a.882.882 0 01.216-.277.942.942 0 01.613-.224v2c.342 0 .578-.163.688-.257a1.12 1.12 0 00.272-.348l-1.79-.894zm.83-.501a.937.937 0 01.884.632l-1.898.632A1.063 1.063 0 0025 7.087v-2zm.877.614c-.189-.534-.658-1.1-1.062-1.503-.404-.404-.969-.873-1.503-1.062l-.668 1.885.024.01a2.105 2.105 0 01.253.162c.15.11.317.256.48.419.163.163.308.33.42.48a2.123 2.123 0 01.16.253l.011.024 1.885-.668zM23.35 3.15c.368.147.58.501.58.858 0 .378-.255.82-.756.92l-.392-1.96a1.06 1.06 0 00-.853 1.04c0 .413.244.825.678.999l.743-1.857zm-.038 1.74c.534-.189 1.1-.658 1.503-1.062.404-.404.873-.969 1.062-1.503l-1.885-.668-.01.024a2.121 2.121 0 01-.162.253c-.11.15-.256.317-.419.48a4.43 4.43 0 01-.48.42 2.11 2.11 0 01-.253.16l-.024.011.668 1.885zm2.572-2.582A.937.937 0 0125 2.94v-2a1.063 1.063 0 00-1.014.735l1.898.633zM25 2.939a.937.937 0 01-.884-.631l1.898-.633A1.063 1.063 0 0025 .94v2zm-.877-.614c.189.534.658 1.1 1.062 1.503.404.404.969.873 1.503 1.062l.668-1.885-.024-.01a2.11 2.11 0 01-.253-.162 4.43 4.43 0 01-.48-.419 4.448 4.448 0 01-.42-.48 2.121 2.121 0 01-.16-.253l-.011-.024-1.885.668zm2.703 2.603a.941.941 0 01-.755-.92c0-.357.21-.71.58-.858l.742 1.857c.434-.174.678-.586.678-.999a1.06 1.06 0 00-.853-1.04l-.392 1.96zm9.33 31.067l5.69-.568-.199-1.99-5.69.568.198 1.99zm5.427-3.57l-5.69.568.198 1.99 5.69-.568-.198-1.99zm-36.43 3l5.676.57.2-1.99-5.677-.57-.2 1.99zm5.978-2.406l-5.689-.57-.2 1.99 5.69.57.2-1.99z" fill="#1951A0" mask="url(#path-1-inside-1)"/></svg>