<svg width="47" height="47" fill="none" xmlns="http://www.w3.org/2000/svg"><path d="M23.5 0C10.527 0 0 10.527 0 23.5S10.527 47 23.5 47 47 36.473 47 23.5 36.473 0 23.5 0zm0 1.022c12.42 0 22.478 10.058 22.478 22.478 0 12.42-10.058 22.478-22.478 22.478-12.42 0-22.478-10.058-22.478-22.478 0-12.42 10.057-22.478 22.478-22.478zm0 5.108c-9.587 0-17.37 7.783-17.37 17.37s7.783 17.37 17.37 17.37 17.37-7.783 17.37-17.37S33.087 6.13 23.5 6.13zm0 1.022c.943 0 1.863.087 2.762.24-.636 1.804-.824 4.194-.655 6.401.248 1.87.45 4.336 1.916 5.508 1.667.965 3.627.603 5.268.208 2.047-.5 4.217-1.357 5.891-2.091.519 1.293.865 2.67 1.038 4.102-1.9.192-4.15.49-6.13.974-1.678.5-3.954 1.017-4.742 2.57-.568 1.967.387 3.952 1.277 5.508 1.128 1.953 2.73 3.875 4.375 5.03a16.453 16.453 0 01-3.544 2.458c-.598-1.727-1.674-3.636-2.906-5.22-1.382-1.777-2.932-3.21-4.55-3.21-1.899.33-3.28 1.879-4.358 3.193-1.286 1.578-2.457 3.495-3.081 5.237A16.44 16.44 0 0112.5 35.6c1.649-1.153 3.247-3.09 4.374-5.045.828-1.606 2.037-3.836 1.277-5.492-1.095-1.626-3.077-2.159-4.742-2.57-1.98-.484-4.23-.782-6.13-.974.176-1.463.55-2.865 1.086-4.182 1.667.731 3.832 1.603 5.859 2.123 1.687.353 3.879.858 5.252-.16 1.456-1.492 1.767-3.653 1.916-5.507.17-2.208-.019-4.598-.655-6.402.962-.135 1.937-.237 2.762-.24zm-3.784.447c.594 1.589.836 3.96.67 6.115-.218 1.699-.37 3.496-1.532 4.773-1.403.685-3.023.326-4.374-.016-1.937-.497-4.07-1.354-5.715-2.075 1.944-4.338 6.207-7.72 10.951-8.797zm7.568 0a16.367 16.367 0 0110.983 8.877c-1.64.718-3.789 1.569-5.731 2.043-1.478.303-3.057.674-4.39-.032-1.13-1.337-1.404-3.182-1.533-4.773-.165-2.155.077-4.526.67-6.115zM23.5 18.391a1.022 1.022 0 100 2.044 1.022 1.022 0 000-2.044zm-4.087 3.066a1.022 1.022 0 100 2.043 1.022 1.022 0 000-2.044zm8.174 0a1.022 1.022 0 100 2.043 1.022 1.022 0 000-2.044zM7.184 22.541c1.874.189 4.09.478 5.987.942 1.472.441 3.15.78 4.07 2.027.312 1.631-.504 3.24-1.244 4.535-1.102 1.911-2.733 3.846-4.231 4.837A16.301 16.301 0 017.152 23.5c0-.32.014-.642.032-.958zm32.632 0a16.292 16.292 0 01-4.582 12.34c-1.49-.995-3.114-2.915-4.215-4.82-.792-1.464-1.54-2.924-1.26-4.55 1.006-1.241 2.676-1.683 4.07-2.028a54.686 54.686 0 015.987-.942zm-18.87 4.023a1.022 1.022 0 100 2.044 1.022 1.022 0 000-2.044zm5.108 0a1.022 1.022 0 100 2.044 1.022 1.022 0 000-2.044zM23.5 30.652c.937 0 2.451 1.138 3.752 2.81 1.185 1.524 2.22 3.432 2.762 5.045a16.314 16.314 0 01-6.514 1.34c-2.315 0-4.52-.474-6.514-1.34.557-1.599 1.707-3.514 2.954-5.045 1.041-1.188 2.047-2.37 3.56-2.81z" fill="#1951A0"/></svg>